<?xml version="1.0" encoding="UTF-8" standalone="no"?>
<svg width="100" height="30" viewBox="0 0 100 30" version="1.1" xmlns="http://www.w3.org/2000/svg"
  xmlns:svg="http://www.w3.org/2000/svg">
  <g id="layer1" transform="translate(-0.62023027,-0.4456463)">
    <path
      d="m 9.8212334,26.043325 c 0.2293636,-1.51164 0.5592316,-3.007614 0.7923556,-4.51824 l -0.56468,-0.01673 c 0,0 -0.1755259,0.471257 -0.856361,2.409851 l -0.8569557,2.440077 -3.857745,0.04632 c -2.1217598,0.02548 -3.85768741,0.01564 -3.85761703,-0.02187 7.04e-5,-0.03751 0.82096843,-0.917937 1.82421773,-1.956511 C 3.4476973,23.387648 4.7504471,21.932041 5.3394475,21.19154 8.8182477,16.817934 11.731893,11.195026 13.155108,6.1084623 l 0.440936,-1.5759004 3.93308,-0.04619 3.93308,-0.04619 -0.08114,0.4076063 c -0.228427,1.1474424 -1.234022,7.4584748 -1.234022,7.4584748 0,0 0.37433,0.04143 2.316362,0.04114 l 2.301392,-3.42e-4 0.865732,-5.0132146 c 0.476153,-2.7572697 0.93814,-5.4350886 1.026639,-5.9507105 l 0.160907,-0.9374947 h 3.957032 3.957032 l -0.08696,0.3668457 c -0.04783,0.2017652 -0.637721,3.5584034 -1.310875,7.4591961 -0.673151,3.900793 -1.260906,7.275773 -1.30612,7.499957 -0.04522,0.224184 0.196736,-0.116776 0.53767,-0.757689 1.947953,-3.661916 5.260854,-5.6577759 9.398825,-5.6623315 4.300052,-0.00473 6.913621,2.0628225 7.394103,5.8493725 l 0.124132,0.978255 0.520911,-2.934766 c 0.286495,-1.614122 0.520797,-3.063162 0.520664,-3.220091 -1.6e-4,-0.2629116 0.27294,-0.285324 3.477595,-0.285324 h 3.477837 l -0.109304,0.831854 -0.109308,0.831855 0.790124,-0.612071 c 0.941898,-0.729646 1.874827,-1.1702012 2.879155,-1.3596202 0.519011,-0.097887 0.73658,-0.08495 0.735001,0.043707 -0.0014,0.1005143 -0.174943,1.1365532 -0.386025,2.3023072 -0.211087,1.165754 -0.356447,2.149095 -0.323028,2.185204 0.03342,0.03611 0.22076,-0.147315 0.416309,-0.407607 1.418713,-1.888412 3.769125,-3.364645 6.358595,-3.9936677 1.96295,-0.4768316 5.251579,-0.159411 6.843647,0.6605527 1.005679,0.517957 2.484914,2.003887 2.912649,2.925836 l 0.384505,0.828771 0.472434,-0.835094 c 1.772139,-3.132513 6.370032,-4.6460536 10.333932,-3.4017388 1.029384,0.3231358 2.272307,1.0696048 2.876263,1.7274098 l 0.394439,0.429606 -1.938018,1.855994 c -1.065906,1.020796 -1.997366,1.856048 -2.069914,1.856113 -0.07255,6.6e-5 -0.363249,-0.17317 -0.646004,-0.38497 -0.966729,-0.724128 -2.309997,-0.979205 -2.69437,-0.511643 -0.30618,0.372445 0.05006,0.692636 1.111261,0.998826 1.267191,0.365621 3.068226,1.225296 3.700483,1.766319 0.557938,0.477435 1.163802,1.510157 1.163802,1.983767 0,0.938886 0.332413,-0.538381 1.074143,-4.773534 0.46424,-2.650721 0.874198,-4.8499077 0.911019,-4.8870808 0.03681,-0.037172 1.625401,-0.047785 3.530178,-0.02358 l 3.463229,0.044008 -1.436321,8.2336478 c -0.789973,4.528507 -1.45699,8.255476 -1.482261,8.282153 -0.06346,0.06698 -6.896293,0.05829 -6.962816,-0.0089 -0.02948,-0.02977 0.0889,-0.852023 0.263101,-1.827218 0.174197,-0.975189 0.316724,-1.808705 0.316724,-1.852251 0,-0.04354 -0.280072,0.358287 -0.622387,0.892967 -1.334922,2.085091 -4.039199,3.317517 -7.279544,3.317517 -1.204478,0 -3.199199,-0.456714 -4.157216,-0.951839 -0.767247,-0.396533 -2.475963,-1.666204 -2.475963,-1.839781 0,-0.0705 0.766305,-1.008798 1.702901,-2.085122 l 1.702902,-1.956953 1.002245,0.551271 c 1.381394,0.759819 2.781347,1.153355 3.282637,0.922772 0.749485,-0.344747 0.538751,-0.545471 -1.230637,-1.172167 -1.666859,-0.590383 -2.495241,-1.041851 -3.320139,-1.809472 l -0.704008,-0.655126 -0.101947,0.462905 c -0.453596,2.059624 -1.308856,3.598027 -2.905287,5.225881 -1.101601,1.123287 -1.558278,1.457158 -2.833843,2.071782 -5.011531,2.414778 -10.415392,1.207239 -12.358345,-2.761583 -0.779618,-1.592503 -0.921682,-3.407382 -0.421344,-5.382746 0.180977,-0.71451 0.37962,-1.427505 0.441428,-1.584434 0.09731,-0.247079 0.01177,-0.285324 -0.638094,-0.285324 -1.516413,0 -2.805523,1.152473 -3.159402,2.824525 -0.09823,0.464163 -0.452209,2.421369 -0.786613,4.349347 l -0.607997,3.505415 -3.502088,0.04394 c -2.745611,0.03446 -3.502045,-8.32e-4 -3.501922,-0.163042 1.6e-4,-0.209934 0.901658,-5.443514 1.053711,-6.117275 l 0.08279,-0.366846 H 43.58276 c -3.615602,0 -5.332617,0.0551 -5.332617,0.171139 0,0.426738 0.519556,1.112839 1.026676,1.355781 1.042044,0.4992 2.586459,0.306601 3.828978,-0.477501 l 0.575871,-0.363409 0.958391,0.579724 c 0.527114,0.318847 1.490859,0.909285 2.141652,1.312083 l 1.183258,0.732363 -0.375752,0.349175 c -1.625903,1.510893 -3.163241,2.422357 -5.145733,3.050822 -1.701598,0.539419 -4.747458,0.537263 -6.292857,-0.0044 -2.689722,-0.942844 -4.359793,-2.990986 -4.640211,-5.690661 -0.04913,-0.47296 -0.117335,-0.831647 -0.151575,-0.79708 -0.03424,0.03457 -0.320333,1.521751 -0.635761,3.304856 -0.315428,1.783104 -0.585936,3.242327 -0.601127,3.242719 -0.0152,3.25e-4 -1.775545,-0.03598 -3.911893,-0.08081 l -3.884272,-0.08152 0.665931,-3.831499 0.66593,-3.831499 -2.254671,-0.04538 c -1.240069,-0.02496 -2.294519,-0.0051 -2.343221,0.04402 -0.0487,0.04916 -0.508041,2.490767 -1.020755,5.42578 -0.512713,2.93501 -0.974833,5.574834 -1.026932,5.866272 l -0.09473,0.529888 H 12.957 c -2.993588,0 -3.9378185,1.83e-4 -3.9378185,1.83e-4 0.3248174,-1.604763 0.5753647,-3.085143 0.8020519,-4.402349 z m 59.5475156,-5.14849 c 1.020049,-0.651458 1.746622,-2.42226 1.634713,-3.984135 -0.05754,-0.80302 -0.154136,-1.065779 -0.54414,-1.48013 -0.43647,-0.463715 -0.542043,-0.498264 -1.327254,-0.434354 -0.695493,0.0566 -0.954529,0.168718 -1.402398,0.606953 -1.380488,1.35079 -1.760154,4.183679 -0.693748,5.176377 0.607741,0.565735 1.554277,0.612513 2.332827,0.115289 z M 41.251125,16.09773 c 1.268668,0 1.359551,-0.02263 1.359551,-0.338626 0,-0.488409 -0.855946,-1.291799 -1.376305,-1.291799 -0.663274,0 -1.518213,0.480912 -1.786683,1.005028 -0.265893,0.519087 -0.167981,0.862433 0.204761,0.718033 0.131518,-0.05095 0.850922,-0.09264 1.598676,-0.09264 z M 94.526639,8.9434782 c -1.73882,-0.7973745 -2.192077,-2.8109964 -1.044097,-4.6384539 0.908232,-1.4457941 2.519889,-2.2024559 4.296794,-2.0173126 2.938004,0.3061225 3.810164,3.3464334 1.60312,5.5883875 -1.297951,1.3184817 -3.33283,1.765778 -4.855817,1.067379 z"
      id="path1" />
  </g>
</svg>